# xmcd
#
# Track frame offsets:
#	150
#	15085
#	28658
#	42674
#	59073
#	74516
#	88200
#	103348
#	117506
#	132202
#	145848
#
# Disc length: 2182 seconds
#
# Revision: 0
# Processed by: cddbd v1.5.2PL0 Copyright (c) Steve Scherf et al.
# Submitted via: EasyCDDAExtractor 16.0.9.1
#
DISCID=a508840b
DTITLE=Los Tigres Del Norte - Realidaedes
DYEAR=2014
DGENRE=National Folk
TTITLE0=La Bala
TTITLE1=Qué Tal Si Eres Tu
TTITLE2=Hoy Le Hablo a Diario
TTITLE3=Amarte Me Hace Bien
TTITLE4=EL Gallo Del Mojado
TTITLE5=Era Diferente
TTITLE6=Asi Es El Amor
TTITLE7=La Puerta Del Rancho
TTITLE8=Necesitamos Conversar
TTITLE9=La Hija, La Mamá
TTITLE10=La Jefa Del Jefe
EXTD=
EXTT0=
EXTT1=
EXTT2=
EXTT3=
EXTT4=
EXTT5=
EXTT6=
EXTT7=
EXTT8=
EXTT9=
EXTT10=
PLAYORDER=
